<svg width="21" height="20" viewBox="0 0 21 20" fill="none" xmlns="http://www.w3.org/2000/svg">
<path d="M6.48017 15.5564C5.327 15.5564 4.39221 16.4912 4.39221 17.6444C4.39221 18.7975 5.32704 19.7323 6.48017 19.7323C7.63335 19.7323 8.56813 18.7975 8.56813 17.6444C8.56817 16.4912 7.63335 15.5564 6.48017 15.5564ZM6.48017 18.8044C5.83953 18.8044 5.3202 18.285 5.3202 17.6444C5.3202 17.0038 5.83953 16.4844 6.48017 16.4844C7.12081 16.4844 7.64014 17.0038 7.64014 17.6444C7.64018 18.285 7.12081 18.8044 6.48017 18.8044Z" fill="#181D19"/>
<path d="M15.2961 15.5564C14.1429 15.5564 13.2081 16.4912 13.2081 17.6444C13.2081 18.7975 14.143 19.7323 15.2961 19.7323C16.4492 19.7323 17.384 18.7975 17.384 17.6444C17.384 16.4912 16.4493 15.5564 15.2961 15.5564ZM15.2961 18.8044C14.6554 18.8044 14.1361 18.285 14.1361 17.6444C14.1361 17.0038 14.6554 16.4844 15.2961 16.4844C15.9367 16.4844 16.4561 17.0038 16.4561 17.6444C16.4561 18.285 15.9367 18.8044 15.2961 18.8044Z" fill="#181D19"/>
<path d="M20.0056 3.3765C19.909 3.27095 19.7768 3.20488 19.6344 3.19089L4.53138 2.98209L4.11379 1.70609C3.8196 0.853101 3.02083 0.277247 2.1186 0.2677H0.564216C0.30795 0.2677 0.10022 0.47543 0.10022 0.731696C0.10022 0.987962 0.30795 1.19569 0.564216 1.19569H2.1186C2.62309 1.20684 3.06732 1.53078 3.2322 2.0077L6.17857 10.8932L5.9466 11.4268C5.68784 12.094 5.76555 12.845 6.15539 13.4452C6.5415 14.0346 7.19107 14.3984 7.89539 14.4196H16.9201C17.1764 14.4196 17.3841 14.2118 17.3841 13.9556C17.3841 13.6993 17.1764 13.4916 16.9201 13.4916H7.89534C7.4976 13.4816 7.13147 13.2724 6.92095 12.9348C6.71277 12.6013 6.67001 12.1904 6.80496 11.8212L6.99057 11.4036L16.7577 10.3828C17.8305 10.2646 18.713 9.4843 18.9617 8.43397L20.0753 3.77083C20.1254 3.63654 20.0988 3.48552 20.0056 3.3765ZM18.0568 8.22521C17.9062 8.90134 17.3322 9.40006 16.6417 9.45481L6.99057 10.4524L4.83299 3.91008L19.0544 4.11888L18.0568 8.22521Z" fill="#181D19"/>
</svg>
